<svg xmlns="http://www.w3.org/2000/svg" width="40" height="40" viewBox="0 0 40 40" fill="none"><g clip-path="url(#clip0_919_7977)"><path d="M31.6667 1.66699H8.33333C6.12401 1.66964 4.00593 2.54846 2.4437 4.11069C0.88147 5.67292 0.00264643 7.791 0 10.0003L0 30.0003C0.00264643 32.2096 0.88147 34.3277 2.4437 35.89C4.00593 37.4522 6.12401 38.331 8.33333 38.3337H31.6667C33.876 38.331 35.9941 37.4522 37.5563 35.89C39.1185 34.3277 39.9974 32.2096 40 30.0003V10.0003C39.9974 7.791 39.1185 5.67292 37.5563 4.11069C35.9941 2.54846 33.876 1.66964 31.6667 1.66699ZM8.33333 5.00033H31.6667C32.9927 5.00033 34.2645 5.52711 35.2022 6.46479C36.1399 7.40247 36.6667 8.67424 36.6667 10.0003V11.667H3.33333V10.0003C3.33333 8.67424 3.86012 7.40247 4.7978 6.46479C5.73548 5.52711 7.00725 5.00033 8.33333 5.00033ZM31.6667 35.0003H8.33333C7.00725 35.0003 5.73548 34.4735 4.7978 33.5359C3.86012 32.5982 3.33333 31.3264 3.33333 30.0003V15.0003H36.6667V30.0003C36.6667 31.3264 36.1399 32.5982 35.2022 33.5359C34.2645 34.4735 32.9927 35.0003 31.6667 35.0003ZM31.6667 21.667C31.6667 22.109 31.4911 22.5329 31.1785 22.8455C30.866 23.1581 30.442 23.3337 30 23.3337H10C9.55797 23.3337 9.13405 23.1581 8.82149 22.8455C8.50893 22.5329 8.33333 22.109 8.33333 21.667C8.33333 21.225 8.50893 20.801 8.82149 20.4885C9.13405 20.1759 9.55797 20.0003 10 20.0003H30C30.442 20.0003 30.866 20.1759 31.1785 20.4885C31.4911 20.801 31.6667 21.225 31.6667 21.667ZM25 28.3337C25 28.7757 24.8244 29.1996 24.5118 29.5122C24.1993 29.8247 23.7754 30.0003 23.3333 30.0003H10C9.55797 30.0003 9.13405 29.8247 8.82149 29.5122C8.50893 29.1996 8.33333 28.7757 8.33333 28.3337C8.33333 27.8916 8.50893 27.4677 8.82149 27.1551C9.13405 26.8426 9.55797 26.667 10 26.667H23.3333C23.7754 26.667 24.1993 26.8426 24.5118 27.1551C24.8244 27.4677 25 27.8916 25 28.3337ZM5 8.33366C5 8.00402 5.09775 7.68179 5.28088 7.40771C5.46402 7.13363 5.72432 6.92 6.02886 6.79386C6.3334 6.66771 6.66852 6.63471 6.99182 6.69902C7.31512 6.76332 7.61209 6.92206 7.84518 7.15515C8.07827 7.38823 8.237 7.68521 8.30131 8.00851C8.36562 8.33181 8.33261 8.66692 8.20647 8.97146C8.08032 9.27601 7.8667 9.5363 7.59262 9.71944C7.31853 9.90258 6.9963 10.0003 6.66667 10.0003C6.22464 10.0003 5.80072 9.82473 5.48816 9.51217C5.17559 9.19961 5 8.77569 5 8.33366ZM10 8.33366C10 8.00402 10.0977 7.68179 10.2809 7.40771C10.464 7.13363 10.7243 6.92 11.0289 6.79386C11.3334 6.66771 11.6685 6.63471 11.9918 6.69902C12.3151 6.76332 12.6121 6.92206 12.8452 7.15515C13.0783 7.38823 13.237 7.68521 13.3013 8.00851C13.3656 8.33181 13.3326 8.66692 13.2065 8.97146C13.0803 9.27601 12.8667 9.5363 12.5926 9.71944C12.3185 9.90258 11.9963 10.0003 11.6667 10.0003C11.2246 10.0003 10.8007 9.82473 10.4882 9.51217C10.1756 9.19961 10 8.77569 10 8.33366ZM15 8.33366C15 8.00402 15.0977 7.68179 15.2809 7.40771C15.464 7.13363 15.7243 6.92 16.0289 6.79386C16.3334 6.66771 16.6685 6.63471 16.9918 6.69902C17.3151 6.76332 17.6121 6.92206 17.8452 7.15515C18.0783 7.38823 18.237 7.68521 18.3013 8.00851C18.3656 8.33181 18.3326 8.66692 18.2065 8.97146C18.0803 9.27601 17.8667 9.5363 17.5926 9.71944C17.3185 9.90258 16.9963 10.0003 16.6667 10.0003C16.2246 10.0003 15.8007 9.82473 15.4882 9.51217C15.1756 9.19961 15 8.77569 15 8.33366Z" fill="#FF0000"></path></g><defs><clipPath id="clip0_919_7977"><rect width="40" height="40" fill="white"></rect></clipPath></defs></svg>