<svg xmlns="http://www.w3.org/2000/svg" width="40" height="40" viewBox="0 0 40 40" fill="none"><g clip-path="url(#clip0_919_8809)"><path d="M30.2017 13.132C32.1517 15.082 32.1517 18.252 30.2017 20.202L25.8967 24.5087C25.5717 24.8337 25.145 24.997 24.7183 24.997C24.2917 24.997 23.865 24.8337 23.54 24.5087C22.8883 23.857 22.8883 22.8037 23.54 22.152L27.845 17.8453C28.495 17.1953 28.495 16.1387 27.845 15.4887L23.54 11.182C22.8883 10.5303 22.8883 9.47699 23.54 8.82533C24.1917 8.17366 25.245 8.17366 25.8967 8.82533L30.2017 13.132ZM16.46 11.182C17.1117 10.5303 17.1117 9.47699 16.46 8.82533C15.8083 8.17366 14.755 8.17366 14.1033 8.82533L9.79833 13.132C7.84833 15.082 7.84833 18.252 9.79833 20.202L14.1033 24.5087C14.4283 24.8337 14.855 24.997 15.2817 24.997C15.7083 24.997 16.135 24.8337 16.46 24.5087C17.1117 23.857 17.1117 22.8037 16.46 22.152L12.155 17.8453C11.505 17.1953 11.505 16.1387 12.155 15.4887L16.46 11.182ZM40 10.0003V23.3337C40 27.9287 36.2617 31.667 31.6667 31.667H21.6667V35.0003H28.3333C29.2533 35.0003 30 35.7453 30 36.667C30 37.5887 29.2533 38.3337 28.3333 38.3337H11.6667C10.7467 38.3337 10 37.5887 10 36.667C10 35.7453 10.7467 35.0003 11.6667 35.0003H18.3333V31.667H8.33333C3.73833 31.667 0 27.9287 0 23.3337V10.0003C0 5.40533 3.73833 1.66699 8.33333 1.66699H31.6667C36.2617 1.66699 40 5.40533 40 10.0003ZM36.6667 10.0003C36.6667 7.24366 34.4233 5.00033 31.6667 5.00033H8.33333C5.57667 5.00033 3.33333 7.24366 3.33333 10.0003V23.3337C3.33333 26.0903 5.57667 28.3337 8.33333 28.3337H31.6667C34.4233 28.3337 36.6667 26.0903 36.6667 23.3337V10.0003Z" fill="#FF0000"></path></g><defs><clipPath id="clip0_919_8809"><rect width="40" height="40" fill="white"></rect></clipPath></defs></svg>