<svg xmlns="http://www.w3.org/2000/svg" width="40" height="40" viewBox="0 0 40 40" fill="none"><g clip-path="url(#clip0_919_13344)"><path d="M29.2751 25.0314C25.1151 25.0314 21.7301 28.3964 21.7301 32.5314C21.7301 36.8248 26.1401 40.0314 30.0851 40.0314H35.9002C37.2701 40.0314 38.5535 39.3864 39.3301 38.3081C40.0635 37.2898 40.2585 36.0281 39.8652 34.8481C37.7501 28.5164 33.9901 25.0298 29.2751 25.0298V25.0314ZM36.6268 36.3598C36.4735 36.5714 36.2035 36.6981 35.9002 36.6981H30.0851C27.8101 36.6981 25.0635 34.8398 25.0635 32.5314C25.0635 30.2231 26.9518 28.3648 29.2751 28.3648C33.3335 28.3648 35.5551 32.4648 36.7035 35.9048C36.7235 35.9631 36.7835 36.1431 36.6268 36.3598ZM40.0635 6.06977C40.0635 4.45477 39.4368 2.93977 38.2968 1.79977H38.2951C36.0168 -0.480234 32.0285 -0.480234 29.7585 1.79977L2.59681 28.9581C0.963477 30.5931 0.0634766 32.7648 0.0634766 35.0748V38.3631C0.0634766 39.2831 0.810143 40.0298 1.73014 40.0298H5.02014C7.33181 40.0298 9.50348 39.1298 11.1368 37.4964L38.2985 10.3381C39.4385 9.1981 40.0651 7.6831 40.0651 6.0681L40.0635 6.06977ZM8.78181 35.1414C7.77681 36.1464 6.44181 36.6981 5.02181 36.6981H3.39848V35.0764C3.39848 33.6564 3.95181 32.3198 4.95514 31.3164L25.5318 10.7398L29.3568 14.5648L8.78181 35.1414ZM35.9401 7.98143L31.7118 12.2098L27.8868 8.38477L32.1168 4.15477C33.1335 3.13643 34.9201 3.1381 35.9385 4.15477C36.4468 4.66643 36.7301 5.34477 36.7301 6.06977C36.7301 6.79477 36.4501 7.4731 35.9401 7.98143ZM1.83014 10.3381C0.69181 9.1981 0.0651432 7.68143 0.0651432 6.06977C0.0651432 4.4581 0.69181 2.9381 1.83014 1.79977C4.11181 -0.483568 8.09514 -0.481901 10.3718 1.79977L16.7701 8.1981C17.4218 8.84977 17.4218 9.9031 16.7701 10.5548C16.1185 11.2064 15.0651 11.2064 14.4135 10.5548L8.01348 4.15477C6.99514 3.13477 5.20848 3.13643 4.19014 4.15477C3.67848 4.66643 3.39848 5.34477 3.39848 6.06977C3.39848 6.79477 3.67848 7.4731 4.18848 7.9831L10.5868 14.3814C11.2385 15.0314 11.2385 16.0864 10.5868 16.7381C10.2618 17.0631 9.83514 17.2264 9.40848 17.2264C8.98181 17.2264 8.55514 17.0631 8.23014 16.7381L1.83014 10.3381Z" fill="#ff0000"></path></g><defs fill="#000000"><clipPath id="clip0_919_13344" fill="#000000"><rect width="40" height="40" fill="white"></rect></clipPath></defs></svg>