<svg xmlns="http://www.w3.org/2000/svg" width="40" height="40" viewBox="0 0 40 40" fill="none"><path d="M38.6122 19.425C36.9023 15.9211 34.2614 12.9552 30.9785 10.8519C27.6957 8.74857 23.8975 7.58896 19.9997 7.5C16.1019 7.58896 12.3036 8.74857 9.0208 10.8519C5.73796 12.9552 3.09706 15.9211 1.38717 19.425C1.29512 19.6027 1.24707 19.7999 1.24707 20C1.24707 20.2001 1.29512 20.3973 1.38717 20.575C3.09706 24.0789 5.73796 27.0448 9.0208 29.1481C12.3036 31.2514 16.1019 32.411 19.9997 32.5C23.8975 32.411 27.6957 31.2514 30.9785 29.1481C34.2614 27.0448 36.9023 24.0789 38.6122 20.575C38.7042 20.3973 38.7523 20.2001 38.7523 20C38.7523 19.7999 38.7042 19.6027 38.6122 19.425ZM19.9997 30C16.6722 29.917 13.4274 28.9461 10.6011 27.1879C7.77482 25.4297 5.46981 22.9481 3.92467 20C5.46981 17.0519 7.77482 14.5703 10.6011 12.8121C13.4274 11.0539 16.6722 10.083 19.9997 10C23.3272 10.083 26.572 11.0539 29.3982 12.8121C32.2245 14.5703 34.5295 17.0519 36.0747 20C34.5295 22.9481 32.2245 25.4297 29.3982 27.1879C26.572 28.9461 23.3272 29.917 19.9997 30Z" fill="#FF0000"></path><path d="M20 13.75C18.7639 13.75 17.5555 14.1166 16.5277 14.8033C15.4999 15.4901 14.6988 16.4662 14.2258 17.6082C13.7527 18.7503 13.6289 20.0069 13.8701 21.2193C14.1113 22.4317 14.7065 23.5453 15.5806 24.4194C16.4547 25.2935 17.5683 25.8888 18.7807 26.1299C19.9931 26.3711 21.2497 26.2473 22.3918 25.7742C23.5338 25.3012 24.5099 24.5001 25.1967 23.4723C25.8834 22.4445 26.25 21.2361 26.25 20C26.25 18.3424 25.5915 16.7527 24.4194 15.5806C23.2473 14.4085 21.6576 13.75 20 13.75ZM20 23.75C19.2583 23.75 18.5333 23.5301 17.9166 23.118C17.2999 22.706 16.8193 22.1203 16.5355 21.4351C16.2516 20.7498 16.1774 19.9958 16.3221 19.2684C16.4668 18.541 16.8239 17.8728 17.3484 17.3483C17.8728 16.8239 18.541 16.4667 19.2684 16.3221C19.9958 16.1774 20.7498 16.2516 21.4351 16.5355C22.1203 16.8193 22.706 17.2999 23.118 17.9166C23.5301 18.5333 23.75 19.2583 23.75 20C23.75 20.9946 23.3549 21.9484 22.6517 22.6517C21.9484 23.3549 20.9946 23.75 20 23.75Z" fill="#FF0000"></path><path d="M20 6.25C20.3315 6.25 20.6495 6.1183 20.8839 5.88388C21.1183 5.64946 21.25 5.33152 21.25 5V2.5C21.25 2.16848 21.1183 1.85054 20.8839 1.61612C20.6495 1.3817 20.3315 1.25 20 1.25C19.6685 1.25 19.3505 1.3817 19.1161 1.61612C18.8817 1.85054 18.75 2.16848 18.75 2.5V5C18.75 5.33152 18.8817 5.64946 19.1161 5.88388C19.3505 6.1183 19.6685 6.25 20 6.25Z" fill="#FF0000"></path><path d="M26.9378 7.36256C27.1107 7.4551 27.3043 7.50241 27.5003 7.50006C27.7312 7.49936 27.9573 7.43475 28.1537 7.31341C28.35 7.19206 28.509 7.0187 28.6128 6.81256L29.8628 4.31256C29.9842 4.02119 29.9908 3.69471 29.8814 3.39867C29.772 3.10262 29.5546 2.85893 29.2729 2.71652C28.9913 2.5741 28.6662 2.54351 28.3629 2.63088C28.0596 2.71826 27.8006 2.91712 27.6379 3.18756L26.3879 5.68756C26.2396 5.98277 26.2142 6.32467 26.3173 6.63853C26.4203 6.9524 26.6434 7.2127 26.9378 7.36256Z" fill="#FF0000"></path><path d="M11.387 6.81244C11.4908 7.01859 11.6498 7.19194 11.8461 7.31329C12.0425 7.43464 12.2686 7.49924 12.4995 7.49994C12.6956 7.50229 12.8891 7.45499 13.062 7.36244C13.3564 7.21259 13.5795 6.95228 13.6825 6.63842C13.7856 6.32455 13.7602 5.98265 13.612 5.68744L12.362 3.18744C12.2959 3.02876 12.1978 2.88541 12.0738 2.76635C11.9498 2.64729 11.8026 2.55509 11.6414 2.49549C11.4801 2.4359 11.3084 2.4102 11.1367 2.42C10.9651 2.4298 10.7974 2.47489 10.644 2.55245C10.4906 2.63001 10.3548 2.73838 10.2452 2.87078C10.1356 3.00318 10.0544 3.15676 10.0069 3.32193C9.95927 3.48711 9.94627 3.66032 9.96865 3.83075C9.99104 4.00118 10.0483 4.16516 10.137 4.31244L11.387 6.81244Z" fill="#FF0000"></path><path d="M20 33.75C19.6685 33.75 19.3505 33.8817 19.1161 34.1161C18.8817 34.3505 18.75 34.6685 18.75 35V37.5C18.75 37.8315 18.8817 38.1495 19.1161 38.3839C19.3505 38.6183 19.6685 38.75 20 38.75C20.3315 38.75 20.6495 38.6183 20.8839 38.3839C21.1183 38.1495 21.25 37.8315 21.25 37.5V35C21.25 34.6685 21.1183 34.3505 20.8839 34.1161C20.6495 33.8817 20.3315 33.75 20 33.75Z" fill="#FF0000"></path><path d="M28.613 33.1876C28.4503 32.9171 28.1913 32.7183 27.888 32.6309C27.5847 32.5435 27.2596 32.5741 26.978 32.7165C26.6963 32.8589 26.4789 33.1026 26.3695 33.3987C26.2601 33.6947 26.2667 34.0212 26.388 34.3126L27.638 36.8126C27.7419 37.0187 27.9008 37.1921 28.0972 37.3134C28.2936 37.4348 28.5197 37.4994 28.7505 37.5001C28.9466 37.5024 29.1401 37.4551 29.313 37.3626C29.6075 37.2127 29.8306 36.9524 29.9336 36.6385C30.0367 36.3247 30.0113 35.9828 29.863 35.6876L28.613 33.1876Z" fill="#FF0000"></path><path d="M13.0619 32.6379C12.7667 32.4896 12.4248 32.4642 12.1109 32.5673C11.797 32.6703 11.5367 32.8934 11.3869 33.1878L10.1369 35.6878C9.98861 35.9831 9.96323 36.325 10.0663 36.6388C10.1694 36.9527 10.3925 37.213 10.6869 37.3628C10.8598 37.4554 11.0533 37.5027 11.2494 37.5003C11.4802 37.4996 11.7063 37.435 11.9027 37.3137C12.0991 37.1923 12.258 37.019 12.3619 36.8128L13.6119 34.3129C13.7601 34.0176 13.7855 33.6757 13.6825 33.3619C13.5794 33.048 13.3563 32.7877 13.0619 32.6379Z" fill="#FF0000"></path></svg>