<svg xmlns="http://www.w3.org/2000/svg" width="40" height="40" viewBox="0 0 40 40" fill="none"><g clip-path="url(#clip0_172_4299)"><path d="M20.0666 13.9547C20.6171 13.9547 21.063 13.5085 21.063 12.9583C21.063 12.4081 20.6171 11.9619 20.0666 11.9619C15.6644 11.9619 12.0957 15.5306 12.0957 19.9331C12.0957 24.3352 15.6644 27.904 20.0666 27.904C24.469 27.904 28.0378 24.3352 28.0378 19.9331C28.0378 19.3826 27.5916 18.9367 27.0414 18.9367C26.4911 18.9367 26.045 19.3826 26.045 19.9331C26.045 23.2348 23.3686 25.9115 20.0666 25.9115C16.7649 25.9115 14.0882 23.2348 14.0882 19.9331C14.0882 16.6311 16.7649 13.9547 20.0666 13.9547Z" fill="#FF0000"></path><path d="M39.078 14.0152C38.905 13.4924 38.341 13.2089 37.8179 13.382C37.3071 13.551 37.0226 14.0948 37.1749 14.6109C40.1547 24.0997 34.8782 34.2074 25.3894 37.1872C15.9008 40.1669 5.79313 34.8904 2.8134 25.4016C-0.166636 15.9128 5.11015 5.80506 14.5987 2.82533C18.1112 1.72243 21.8771 1.72243 25.3894 2.82533C25.9167 2.98433 26.473 2.68586 26.632 2.15852C26.7886 1.63911 26.5014 1.0901 25.9854 0.922256C15.4492 -2.3834 4.22789 3.4781 0.92223 14.0146C-2.38343 24.5508 3.47838 35.7721 14.0146 39.0777C24.551 42.3834 35.772 36.5219 39.0777 25.9854C40.3002 22.0889 40.3002 17.9117 39.078 14.0152Z" fill="#FF0000"></path><path d="M21.964 7.11804C21.9692 6.55072 21.5334 6.07648 20.9676 6.03406C20.6701 6.00873 20.3722 5.9834 20.0668 5.9834C12.3626 5.9834 6.11719 12.2288 6.11719 19.933C6.11719 27.6368 12.3626 33.8822 20.0668 33.8822C27.7706 33.8822 34.016 27.6368 34.016 19.933C34.016 19.5726 33.994 19.2124 33.9498 18.8548C33.8701 18.3079 33.3623 17.9292 32.8155 18.0088C32.2686 18.0882 31.8899 18.5963 31.9692 19.1432C31.9723 19.1639 31.9759 19.1844 31.9802 19.2051C32.0019 19.4465 32.0232 19.6858 32.0232 19.9324C32.0235 26.536 26.6704 31.8891 20.0671 31.8897C13.4634 31.89 8.11029 26.5367 8.10998 19.9333C8.10968 13.3299 13.4625 7.9765 20.0661 7.97619H20.0664C20.3136 7.97619 20.5532 7.99756 20.794 8.01892L20.9808 8.03448C21.5014 8.05676 21.9414 7.65271 21.9634 7.13208C21.9637 7.1272 21.9637 7.12262 21.964 7.11804Z" fill="#FF0000"></path><path d="M26.0455 8.9735V12.5465L19.3628 19.2292C18.967 19.6116 18.956 20.2424 19.3384 20.6382C19.7207 21.034 20.3515 21.045 20.7474 20.6626C20.7556 20.6547 20.7638 20.6465 20.7718 20.6382L27.4545 13.9555H31.0275C31.2918 13.9555 31.5451 13.8505 31.7321 13.6634L37.7102 7.68505C38.0993 7.29595 38.0993 6.66515 37.7102 6.27606C37.5235 6.08929 37.2702 5.98431 37.0059 5.98431H34.0167V2.99512C34.0167 2.44488 33.5705 1.99872 33.02 1.99902C32.756 1.99902 32.5027 2.104 32.3159 2.29077L26.3376 8.26916C26.1505 8.45592 26.0455 8.70922 26.0455 8.9735ZM28.0383 9.3861L32.0239 5.40051V6.98071C32.0239 7.53094 32.4701 7.9771 33.0203 7.9771H34.6005L30.6149 11.9627H28.0383V9.3861Z" fill="#FF0000"></path></g><defs><clipPath id="clip0_172_4299"><rect width="40" height="40" fill="white"></rect></clipPath></defs></svg>