<svg width="27" height="27" viewBox="0 0 27 27" fill="none" xmlns="http://www.w3.org/2000/svg">
<path fill-rule="evenodd" clip-rule="evenodd" d="M13.5107 6.7998C15.2604 6.80245 16.9376 7.49916 18.1748 8.73633C19.4119 9.97348 20.1077 11.6509 20.1104 13.4004C20.1103 14.7056 19.7232 15.9812 18.998 17.0664C18.2728 18.1518 17.2421 18.9985 16.0361 19.498C14.8304 19.9974 13.5036 20.1276 12.2236 19.873C10.9434 19.6184 9.76675 18.9903 8.84375 18.0674C7.92072 17.1444 7.29275 15.9678 7.03809 14.6875C6.78342 13.4072 6.91355 12.08 7.41309 10.874C7.91262 9.66815 8.75849 8.63728 9.84375 7.91211C10.9291 7.1869 12.2054 6.79981 13.5107 6.7998ZM15.1299 9.49219C14.357 9.17204 13.5061 9.08778 12.6855 9.25098C11.865 9.41419 11.1111 9.8176 10.5195 10.4092C9.92807 11.0007 9.5255 11.7548 9.3623 12.5752C9.1992 13.3955 9.28251 14.2458 9.60254 15.0186C9.9227 15.7915 10.4655 16.4522 11.1611 16.917C11.8567 17.3817 12.6742 17.6299 13.5107 17.6299C14.6318 17.6272 15.7063 17.1804 16.499 16.3877C17.2915 15.5951 17.7385 14.5212 17.7412 13.4004C17.7412 12.5638 17.4931 11.7454 17.0283 11.0498C16.5636 10.3543 15.9027 9.81237 15.1299 9.49219Z" fill="#4A4BFF"/>
<path d="M20.501 4.79004C20.9173 4.79009 21.3169 4.95561 21.6113 5.25C21.9056 5.54441 22.0703 5.94409 22.0703 6.36035C22.0702 6.67071 21.9791 6.97435 21.8066 7.23242C21.6341 7.49061 21.3884 7.69172 21.1016 7.81055C20.8147 7.92936 20.4989 7.95999 20.1943 7.89941C19.8899 7.83881 19.6101 7.68924 19.3906 7.46973C19.1712 7.25019 19.0215 6.97047 18.9609 6.66602C18.9004 6.36155 18.931 6.04559 19.0498 5.75879C19.1686 5.47198 19.3708 5.22717 19.6289 5.05469C19.887 4.88227 20.1905 4.79004 20.501 4.79004Z" fill="#4A4BFF"/>
<path fill-rule="evenodd" clip-rule="evenodd" d="M18.751 0C20.8851 0.00269758 22.9314 0.851303 24.4404 2.36035C25.9495 3.8694 26.7981 5.91569 26.8008 8.0498V18.75C26.7981 20.8841 25.9495 22.9304 24.4404 24.4395C22.9314 25.9485 20.8851 26.7971 18.751 26.7998H8.05078C5.9339 26.7841 3.90803 25.9364 2.41113 24.4395C0.914293 22.9426 0.0664815 20.9166 0.0507812 18.7998V8.0498C0.0534109 5.92432 0.895293 3.88556 2.39355 2.37793C3.89186 0.870301 5.92531 0.0158212 8.05078 0H18.751ZM8.05078 2.51953C6.58499 2.52217 5.18005 3.10614 4.14355 4.14258C3.1071 5.17904 2.5232 6.58404 2.52051 8.0498V18.75C2.52315 20.2158 3.10705 21.6207 4.14355 22.6572C5.18006 23.6937 6.58495 24.2776 8.05078 24.2803H18.751C20.2167 24.2776 21.6217 23.6937 22.6582 22.6572C23.6946 21.6207 24.2786 20.2158 24.2812 18.75V8.0498C24.2786 6.58404 23.6947 5.17904 22.6582 4.14258C21.6217 3.10612 20.2167 2.52223 18.751 2.51953H8.05078Z" fill="#4A4BFF"/>
</svg>
