<svg xmlns="http://www.w3.org/2000/svg" width="40" height="40" viewBox="0 0 40 40" fill="none"><g clip-path="url(#clip0_919_11700)"><path d="M25.0753 0.000273438C25.0303 -0.00139323 14.9703 -0.00139323 14.9253 0.000273438C10.3653 0.0402734 6.66699 3.76361 6.66699 8.33194V31.6653C6.66699 36.2603 10.4053 39.9986 15.0003 39.9986H25.0003C29.5953 39.9986 33.3337 36.2603 33.3337 31.6653V8.33361C33.3337 3.76361 29.6353 0.0419401 25.0753 0.000273438ZM30.0003 31.6653C30.0003 34.4219 27.757 36.6653 25.0003 36.6653H15.0003C12.2437 36.6653 10.0003 34.4219 10.0003 31.6653V8.33361C10.0003 5.91194 11.7303 3.88861 14.0187 3.43027L15.1753 5.74527C15.457 6.31027 16.0353 6.66694 16.667 6.66694H23.3337C23.9653 6.66694 24.542 6.31027 24.8253 5.74527L25.982 3.43027C28.2703 3.88694 30.0003 5.91194 30.0003 8.33361V31.6653ZM21.667 33.3319H18.3337C17.4137 33.3319 16.667 32.5853 16.667 31.6653C16.667 30.7453 17.4137 29.9986 18.3337 29.9986H21.667C22.587 29.9986 23.3337 30.7453 23.3337 31.6653C23.3337 32.5853 22.587 33.3319 21.667 33.3319Z" fill="#FF0000"></path></g><defs><clipPath id="clip0_919_11700"><rect width="40" height="40" fill="white"></rect></clipPath></defs></svg>