<svg xmlns="http://www.w3.org/2000/svg" width="40" height="40" viewBox="0 0 40 40" fill="none"><g clip-path="url(#clip0_919_11362)"><path d="M40 5.00019H21.6667V12.8935L17.215 5.18019C16.9224 4.6735 16.5016 4.25275 15.9949 3.96021C15.4882 3.66768 14.9134 3.51367 14.3283 3.51367C13.7432 3.51367 13.1685 3.66768 12.6617 3.96021C12.155 4.25275 11.7342 4.6735 11.4417 5.18019L0 25.0002H12.1567C11.612 26.8147 11.5174 28.7345 11.881 30.5938C12.2446 32.4531 13.0555 34.1958 14.2437 35.6714C15.4318 37.147 16.9614 38.311 18.7003 39.063C20.4392 39.8149 22.335 40.132 24.2239 39.9869C26.1129 39.8419 27.9381 39.239 29.5418 38.2305C31.1455 37.2219 32.4794 35.8379 33.4283 34.1982C34.3773 32.5586 34.9126 30.7124 34.9881 28.8195C35.0636 26.9265 34.677 25.0436 33.8617 23.3335H40V5.00019ZM5.77333 21.6669L14.3333 6.84853L20.2467 17.0935C17.6189 17.8144 15.3263 19.4325 13.7667 21.6669H5.77333ZM23.3333 36.6669C21.6852 36.6669 20.074 36.1781 18.7036 35.2624C17.3332 34.3468 16.2651 33.0453 15.6343 31.5226C15.0036 29.9998 14.8386 28.3243 15.1601 26.7078C15.4817 25.0913 16.2753 23.6064 17.4408 22.441C18.6062 21.2755 20.0911 20.4819 21.7076 20.1603C23.3241 19.8388 24.9996 20.0038 26.5224 20.6345C28.0451 21.2653 29.3466 22.3334 30.2622 23.7038C31.1779 25.0742 31.6667 26.6854 31.6667 28.3335C31.664 30.5429 30.7852 32.6609 29.223 34.2232C27.6607 35.7854 25.5427 36.6642 23.3333 36.6669ZM36.6667 20.0002H31.49C29.7226 18.2697 27.4489 17.1486 25 16.8002V8.33353H36.6667V20.0002Z" fill="#FF0000"></path></g><defs><clipPath id="clip0_919_11362"><rect width="40" height="40" fill="white"></rect></clipPath></defs></svg>