<svg width="18" height="18" viewBox="0 0 18 18" fill="none" xmlns="http://www.w3.org/2000/svg">
<path d="M18 16.458L13.4239 11.9218C14.6126 10.4807 15.197 8.64177 15.0563 6.78547C14.9156 4.92917 14.0605 3.19749 12.668 1.94862C11.2754 0.699745 9.45186 0.029226 7.57455 0.0757556C5.69724 0.122285 3.90978 0.882303 2.58191 2.1986C1.25404 3.51491 0.487338 5.28678 0.4404 7.14773C0.393461 9.00868 1.06987 10.8163 2.32973 12.1968C3.58958 13.5772 5.33649 14.4248 7.2091 14.5643C9.08172 14.7038 10.9368 14.1244 12.3906 12.9461L16.9667 17.4823L18 16.458ZM7.76919 13.1359C6.61293 13.1359 5.48264 12.796 4.52124 12.1592C3.55985 11.5224 2.81053 10.6173 2.36805 9.55841C1.92557 8.49948 1.8098 7.33425 2.03537 6.21009C2.26095 5.08593 2.81774 4.05333 3.63534 3.24285C4.45294 2.43238 5.49462 1.88044 6.62867 1.65683C7.76271 1.43322 8.93818 1.54798 10.0064 1.98661C11.0747 2.42523 11.9877 3.16802 12.6301 4.12104C13.2725 5.07405 13.6153 6.1945 13.6153 7.34068C13.6136 8.87714 12.9971 10.3502 11.9011 11.4366C10.8051 12.523 9.31916 13.1342 7.76919 13.1359Z" fill="#C8C8CD"/>
</svg>
