<svg xmlns="http://www.w3.org/2000/svg" width="40" height="40" viewBox="0 0 40 40" fill="none"><g clip-path="url(#clip0_919_14001)"><path d="M31.6667 3.33301H8.33333C3.73833 3.33301 0 7.07134 0 11.6663V28.333C0 32.928 3.73833 36.6663 8.33333 36.6663H31.6667C36.2617 36.6663 40 32.928 40 28.333V11.6663C40 7.07134 36.2617 3.33301 31.6667 3.33301ZM8.33333 6.66634H31.6667C34.4233 6.66634 36.6667 8.90967 36.6667 11.6663H3.33333C3.33333 8.90967 5.57667 6.66634 8.33333 6.66634ZM3.33333 28.333V14.9997H11.6667V33.333H8.33333C5.57667 33.333 3.33333 31.0897 3.33333 28.333ZM31.6667 33.333H15V14.9997H36.6667V28.333C36.6667 31.0897 34.4233 33.333 31.6667 33.333Z" fill="#FF0000"></path></g><defs><clipPath id="clip0_919_14001"><rect width="40" height="40" fill="white"></rect></clipPath></defs></svg>