<svg width="25" height="26" viewBox="0 0 25 26" fill="none" xmlns="http://www.w3.org/2000/svg">
<path d="M8.31348 7.62787C8.59029 7.58144 8.87488 7.6208 9.12891 7.74017C9.62891 8.02017 9.88891 8.75068 10.1289 9.26068C10.3622 9.68181 10.4734 10.1597 10.4492 10.6406C10.3113 11.0819 10.0638 11.4813 9.72949 11.8007C9.63729 11.8802 9.57959 11.992 9.56836 12.1132C9.55718 12.2343 9.593 12.3552 9.66895 12.4501C10.5615 13.9883 11.9515 15.1769 13.6094 15.8203C13.7006 15.8748 13.8092 15.8933 13.9131 15.871C14.017 15.8487 14.1081 15.7872 14.1689 15.7001C14.4289 15.3401 14.7191 14.6302 15.1689 14.4501C15.4693 14.3761 15.7831 14.3728 16.085 14.4404C16.3869 14.508 16.6691 14.6456 16.9092 14.8408C17.3792 15.1208 18.1593 15.461 18.2793 16.041C18.3318 16.321 18.2971 16.6105 18.1797 16.8701C17.9699 17.2987 17.66 17.6717 17.2773 17.957C16.8949 18.242 16.45 18.432 15.9795 18.5107C15.15 18.6059 14.3096 18.4747 13.5488 18.1308C12.8168 17.8773 12.1157 17.5418 11.459 17.1308C10.1579 16.3203 9.02424 15.2674 8.11914 14.0302C7.83921 13.6503 7.58956 13.2602 7.34961 12.8603C7.02592 12.3304 6.77667 11.7581 6.60938 11.1601C6.54991 10.9079 6.51982 10.6497 6.51953 10.3906C6.5044 9.93807 6.59185 9.48804 6.77539 9.07416C6.95891 8.66037 7.23365 8.29343 7.5791 8.00092C7.7803 7.80503 8.03655 7.67434 8.31348 7.62787Z" fill="#4A4BFF"/>
<path fill-rule="evenodd" clip-rule="evenodd" d="M13.2246 0.96869C16.1469 1.1647 18.9009 2.40826 20.9805 4.47064C23.0598 6.53297 24.3257 9.2759 24.5459 12.1962C24.7661 15.1167 23.9255 18.0192 22.1787 20.3701C20.4319 22.7207 17.8958 24.3631 15.0361 24.9951C12.1766 25.6269 9.18491 25.2062 6.61035 23.8105L0 25.6005L1.75977 18.9999C0.342686 16.4369 -0.102359 13.4488 0.505859 10.5839C1.11411 7.71901 2.735 5.16945 5.07129 3.40326C7.40756 1.63711 10.3024 0.772747 13.2246 0.96869ZM16.1836 4.07221C14.1813 3.23297 11.958 3.07952 9.85938 3.63568C7.76063 4.19196 5.90388 5.42643 4.58008 7.1474C3.25638 8.86833 2.53934 10.9792 2.54004 13.1503C2.54418 14.9558 3.0497 16.7246 4 18.2597L4.25 18.6796L3.25 22.3505L6.94043 21.3603L7.36035 21.6103C9.22769 22.7178 11.4091 23.1763 13.5645 22.915C15.7196 22.6537 17.7278 21.6874 19.2764 20.166C20.825 18.6442 21.827 16.6524 22.126 14.5019C22.425 12.3514 22.0045 10.1618 20.9297 8.27533C19.8549 6.389 18.1859 4.91148 16.1836 4.07221Z" fill="#4A4BFF"/>
</svg>
