<svg width="24" height="17" viewBox="0 0 24 17" fill="none" xmlns="http://www.w3.org/2000/svg">
<path d="M23.1502 5.08C23.1502 3.7327 22.615 2.44058 21.6623 1.4879C20.7097 0.535213 19.4175 0 18.0702 0L5.07025 0C4.4036 -1.29672e-06 3.7435 0.131469 3.12773 0.386885C2.51196 0.642302 1.9526 1.01665 1.48168 1.4885C1.01075 1.96036 0.637506 2.52045 0.383304 3.13672C0.129101 3.753 -0.0010682 4.41336 0.000246677 5.08V11.08C-0.00637079 11.7508 0.120215 12.4163 0.372669 13.0379C0.625122 13.6594 0.998423 14.2247 1.47094 14.701C1.94345 15.1772 2.50578 15.5549 3.12534 15.8122C3.74491 16.0696 4.40938 16.2014 5.08025 16.2H18.0802C19.4275 16.2 20.7197 15.6648 21.6723 14.7121C22.625 13.7594 23.1602 12.4673 23.1602 11.12L23.1502 5.08ZM15.5102 8.56L9.69025 11.44C9.46025 11.56 8.69025 11.44 8.69025 11.14V5.22C8.69025 4.96 9.47025 4.79 9.69025 4.92L15.2702 7.92C15.5002 8.09 15.7502 8.43 15.5102 8.56Z" fill="#4A4BFF"/>
</svg>
