<svg xmlns="http://www.w3.org/2000/svg" width="45" height="45" viewBox="0 0 45 45" fill="none"><rect width="45" height="45" rx="22.5" fill="url(#paint0_linear_872_5334)"></rect><g clip-path="url(#clip0_872_5334)"><path d="M18.5938 20.547H26.4062C26.8379 20.547 27.1875 20.1974 27.1875 19.7658V18.9845C27.1875 18.5529 26.8379 18.2033 26.4062 18.2033H18.5938C18.1621 18.2033 17.8125 18.5529 17.8125 18.9845V19.7658C17.8125 20.1974 18.1621 20.547 18.5938 20.547ZM17.8125 24.4533C17.8125 24.8849 18.1621 25.2345 18.5938 25.2345H26.4062C26.8379 25.2345 27.1875 24.8849 27.1875 24.4533V23.672C27.1875 23.2404 26.8379 22.8908 26.4062 22.8908H18.5938C18.1621 22.8908 17.8125 23.2404 17.8125 23.672V24.4533ZM22.5 30.3678C21.6982 30.3678 20.8965 30.1208 20.2119 29.6261L10 22.2492V32.6564C10 33.9508 11.0493 35.0002 12.3438 35.0002H32.6562C33.9507 35.0002 35 33.9508 35 32.6564V22.2492L24.7881 29.6261C24.1035 30.1203 23.3018 30.3678 22.5 30.3678ZM34.1021 17.9567C33.6699 17.6178 33.2603 17.299 32.6562 16.8429V14.6877C32.6562 13.3932 31.6069 12.3439 30.3125 12.3439H26.5259C26.3774 12.2365 26.2393 12.1359 26.0845 12.0236C25.2637 11.4245 23.6328 9.98306 22.5 10.0002C21.3672 9.98306 19.7368 11.4245 18.9155 12.0236C18.7607 12.1359 18.6226 12.2365 18.4741 12.3439H14.6875C13.3931 12.3439 12.3438 13.3932 12.3438 14.6877V16.8429C11.7397 17.2985 11.3301 17.6178 10.8979 17.9567C10.6182 18.1759 10.392 18.4558 10.2365 18.7754C10.0809 19.0949 10 19.4456 10 19.8009V20.321L14.6875 23.7072V14.6877H30.3125V23.7072L35 20.321V19.8009C35 19.0812 34.6689 18.401 34.1021 17.9567Z" fill="#FEFEFE"></path></g><defs><linearGradient id="paint0_linear_872_5334" x1="22.5" y1="0" x2="22.5" y2="45" gradientUnits="userSpaceOnUse"><stop stop-color="#FC6D6D"></stop><stop offset="1" stop-color="#FF0F0F"></stop></linearGradient><clipPath id="clip0_872_5334"><rect width="25" height="25" fill="white" transform="translate(10 10)"></rect></clipPath></defs></svg>