<svg xmlns="http://www.w3.org/2000/svg" width="45" height="45" viewBox="0 0 45 45" fill="none"><rect width="45" height="45" rx="22.5" fill="url(#paint0_linear_872_5325)"></rect><g clip-path="url(#clip0_872_5325)"><path d="M34.2866 27.6656L28.8179 25.3218C28.5843 25.2223 28.3246 25.2013 28.078 25.262C27.8315 25.3228 27.6113 25.462 27.4507 25.6587L25.0288 28.6177C21.2279 26.8256 18.169 23.7668 16.377 19.9659L19.3359 17.544C19.533 17.3837 19.6726 17.1635 19.7333 16.9168C19.7941 16.6701 19.7729 16.4103 19.6729 16.1768L17.3291 10.7081C17.2193 10.4563 17.0251 10.2508 16.78 10.1269C16.5348 10.003 16.2542 9.96847 15.9863 10.0293L10.9082 11.2012C10.65 11.2608 10.4196 11.4062 10.2547 11.6137C10.0897 11.8211 9.99994 12.0783 10 12.3433C10 24.8677 20.1514 34.9996 32.6562 34.9996C32.9213 34.9997 33.1787 34.91 33.3862 34.7451C33.5937 34.5801 33.7392 34.3497 33.7988 34.0914L34.9707 29.0132C35.0312 28.7441 34.996 28.4623 34.8711 28.2163C34.7463 27.9704 34.5396 27.7756 34.2866 27.6656Z" fill="white"></path></g><defs><linearGradient id="paint0_linear_872_5325" x1="22.5" y1="0" x2="22.5" y2="45" gradientUnits="userSpaceOnUse"><stop stop-color="#FC6D6D"></stop><stop offset="1" stop-color="#FF0F0F"></stop></linearGradient><clipPath id="clip0_872_5325"><rect width="25" height="25" fill="white" transform="translate(10 10)"></rect></clipPath></defs></svg>