<svg xmlns="http://www.w3.org/2000/svg" width="55.18" height="44.5" viewBox="0 0 55.18 44.5">
  <path id="Path_1" data-name="Path 1" d="M16.376-124.244A12.017,12.017,0,0,1,21.983-123a12.514,12.514,0,0,1,4.094,3.382,15.645,15.645,0,0,1,2.581,4.806,17.335,17.335,0,0,1,.89,5.518,30.847,30.847,0,0,1-1.6,10.591,24.309,24.309,0,0,1-4.361,7.565,34.042,34.042,0,0,1-6.675,5.874q-3.916,2.67-8.544,5.34a1.028,1.028,0,0,1-1.157,0,2.848,2.848,0,0,1-.979-.89,2.194,2.194,0,0,1-.356-1.246A1.54,1.54,0,0,1,6.586-83.3q2.848-2.136,5.34-4.094A28.229,28.229,0,0,0,16.2-91.492a11.518,11.518,0,0,0,2.4-4.717,12.953,12.953,0,0,0-.267-6.141,2.648,2.648,0,0,0-1.246-1.869,9.044,9.044,0,0,0-3.026-.623,8.088,8.088,0,0,1-6.141-3.115,11.183,11.183,0,0,1-2.047-6.853,8.429,8.429,0,0,1,3.2-6.764A11.084,11.084,0,0,1,16.376-124.244Zm31.506,0A12.017,12.017,0,0,1,53.489-123a12.514,12.514,0,0,1,4.094,3.382,15.645,15.645,0,0,1,2.581,4.806,17.335,17.335,0,0,1,.89,5.518,30.847,30.847,0,0,1-1.6,10.591,24.309,24.309,0,0,1-4.361,7.565,34.042,34.042,0,0,1-6.675,5.874q-3.916,2.67-8.544,5.34a1.028,1.028,0,0,1-1.157,0,2.848,2.848,0,0,1-.979-.89,2.194,2.194,0,0,1-.356-1.246,1.54,1.54,0,0,1,.712-1.246q2.848-2.136,5.34-4.094A28.229,28.229,0,0,0,47.7-91.492a11.518,11.518,0,0,0,2.4-4.717,12.953,12.953,0,0,0-.267-6.141,2.648,2.648,0,0,0-1.246-1.869,9.044,9.044,0,0,0-3.026-.623,8.088,8.088,0,0,1-6.141-3.115,11.183,11.183,0,0,1-2.047-6.853,8.429,8.429,0,0,1,3.2-6.764A11.084,11.084,0,0,1,47.882-124.244Z" transform="translate(-5.874 124.244)" fill="#e0e0e0"/>
</svg>
